<?xml version="1.0" encoding="utf-8"?>
<!-- Generator: Adobe Illustrator 25.0.1, SVG Export Plug-In . SVG Version: 6.00 Build 0)  -->
<svg version="1.1" id="圖層_1" xmlns="http://www.w3.org/2000/svg" xmlns:xlink="http://www.w3.org/1999/xlink" x="0px" y="0px"
	 viewBox="0 0 1374.1 373.4" style="enable-background:new 0 0 1374.1 373.4;" xml:space="preserve">
<style type="text/css">
	.st0{clip-path:url(#SVGID_2_);}
	.st1{opacity:0.35;fill:url(#SVGID_3_);enable-background:new    ;}
	.st2{fill:url(#SVGID_4_);}
	.st3{fill:url(#SVGID_5_);}
	.st4{fill:url(#SVGID_6_);}
</style>
<g>
	<g>
		<defs>
			<polyline id="SVGID_1_" points="1374.1,0 1374.1,372.7 0,372.7 0,0 			"/>
		</defs>
		<clipPath id="SVGID_2_">
			<use xlink:href="#SVGID_1_"  style="overflow:visible;"/>
		</clipPath>
		<g class="st0">
			
				<linearGradient id="SVGID_3_" gradientUnits="userSpaceOnUse" x1="317.7825" y1="66.8528" x2="298.2039" y2="385.3268" gradientTransform="matrix(1 0 0 -1 0 376)">
				<stop  offset="0.4523" style="stop-color:#FFFFFF;stop-opacity:0"/>
				<stop  offset="1" style="stop-color:#FFFFFF"/>
			</linearGradient>
			<path class="st1" d="M0,203.7c285,0,622.6,0,622.6,0c-17.6-36.8-71.3-79.6-113.1-94c-24.5-8.4-90.3-2.3-112.1,11.7
				c-16.1-42.2-52.4-75.8-95-88.1s-90.7-2.9-126,24.5C132.3,14.5,60.4-9.7,0,4.8V203.7z"/>
			
				<linearGradient id="SVGID_4_" gradientUnits="userSpaceOnUse" x1="207.7218" y1="-178.7434" x2="392.9323" y2="194.1142" gradientTransform="matrix(1 0 0 -1 0 376)">
				<stop  offset="0.4523" style="stop-color:#FFFFFF;stop-opacity:0"/>
				<stop  offset="1" style="stop-color:#FFFFFF"/>
			</linearGradient>
			<path class="st2" d="M0,102.1c57.8,3.4,110.1,16.6,159.1,47.5c48.9,30.9,87.5,81.1,95.6,138.4c40.9-14.1,86.3-17.1,127.4-3.7
				c41.1,13.5,77.1,44.5,92.1,85c41.2-11.3,85.3-15.4,126.4-3.9c41.1,11.5,79.3,39.8,94.1,79.8H0V102.1z"/>
			
				<linearGradient id="SVGID_5_" gradientUnits="userSpaceOnUse" x1="982.9329" y1="-72.2599" x2="936.0546" y2="184.9704" gradientTransform="matrix(1 0 0 -1 0 376)">
				<stop  offset="0.4523" style="stop-color:#FFFFFF;stop-opacity:0"/>
				<stop  offset="1" style="stop-color:#FFFFFF"/>
			</linearGradient>
			<path class="st3" d="M1374.1,134.3c-101.5,5-199.4,45.2-263.1,108c-55.6-9.4-113.6-12.2-169.3-3.3S832.5,268.9,794,302.1
				c-23.4-10.3-51.9-10.1-78.5-7.1c-73.2,8.3-142.7,36.1-194.7,77.7h854.9L1374.1,134.3z"/>
			
				<linearGradient id="SVGID_6_" gradientUnits="userSpaceOnUse" x1="431.026" y1="-111.7305" x2="458.7889" y2="233.1118" gradientTransform="matrix(1 0 0 -1 0 376)">
				<stop  offset="0.4523" style="stop-color:#FFFFFF;stop-opacity:0"/>
				<stop  offset="1" style="stop-color:#FFFFFF"/>
			</linearGradient>
			<path class="st4" d="M8.3,358c30.9-51.8,99.8-71.8,150.3-43.5c15.7-40.9,47-74.5,85-91s82-15.6,119.3,2.3
				c0.4,0.2,21.3-25.2,23.5-27.6c8.6-8.6,17.8-16.7,28-22.8c28.2-16.8,57.7-22.8,89.5-16.9c27.6,5.1,53.7,20,72.8,42.2
				c7.6,8.9,14.1,18.9,19,29.8c26.3-13,57.7-13.1,84-0.2c26.3,12.9,47.1,38.4,55.6,68.4c55.2-6.2,112.7,23.1,143.4,73.3
				c1.8,2.9,1.8,6.8-2.5,6.8H0L8.3,358z"/>
		</g>
	</g>
</g>
</svg>
