<?xml version="1.0" encoding="utf-8"?>
<!-- Generator: Adobe Illustrator 25.0.1, SVG Export Plug-In . SVG Version: 6.00 Build 0)  -->
<svg version="1.1" id="圖層_1" xmlns="http://www.w3.org/2000/svg" xmlns:xlink="http://www.w3.org/1999/xlink" x="0px" y="0px"
	 viewBox="0 0 484.6 351.6" style="enable-background:new 0 0 484.6 351.6;" xml:space="preserve">
<style type="text/css">
	.st0{fill:#F8CA4D;}
	.st1{fill:#FFFFFF;}
</style>
<g>
	<path class="st0" d="M191.9,137.8c0.2-0.2,0.5-0.4,0.7-0.6c6.1-4.6,12.8-8.4,19.9-11.5c-11-19.1-31.6-32-55.2-32
		c-35.2,0-63.7,28.5-63.7,63.7c0,33.4,25.8,60.8,58.6,63.4c0-1.1-0.1-2.2-0.1-3.4C152.2,184.9,167.8,156,191.9,137.8z"/>
	<path class="st0" d="M157.4,69.6c4.2,0,7.6-3.4,7.6-7.6V7.6c0-4.2-3.4-7.6-7.6-7.6c-4.2,0-7.6,3.4-7.6,7.6v54.3
		C149.8,66.1,153.2,69.6,157.4,69.6z"/>
	<path class="st0" d="M230.3,95.3l38.4-38.4c3-3,3-7.8,0-10.8c-3-3-7.8-3-10.8,0l-38.4,38.4c-3,3-3,7.8,0,10.8
		C222.5,98.3,227.3,98.3,230.3,95.3z"/>
	<path class="st0" d="M95.3,219.5c-3-3-7.8-3-10.8,0l-38.4,38.4c-3,3-3,7.8,0,10.8c3,3,7.8,3,10.8,0l38.4-38.4
		C98.3,227.3,98.3,222.5,95.3,219.5z"/>
	<path class="st0" d="M69.6,157.4c0-4.2-3.4-7.6-7.6-7.6H7.6c-4.2,0-7.6,3.4-7.6,7.6c0,4.2,3.4,7.6,7.6,7.6h54.3
		C66.1,165,69.6,161.6,69.6,157.4z"/>
	<path class="st0" d="M84.5,95.3c3,3,7.8,3,10.8,0c3-3,3-7.8,0-10.8L56.9,46.1c-3-3-7.8-3-10.8,0c-3,3-3,7.8,0,10.8L84.5,95.3z"/>
	<path class="st1" d="M449.7,280.7c-0.3,0-0.7,0-1,0.1l-18.5,0.2l7.4-17c3.3-7.5,4.9-15.5,4.9-23.7c0-33-26.8-59.8-59.8-59.8
		c-11.2,0-22.1,3.2-31.7,9.2l-12.1,7.6l-5.4-13.2c-4.4-10.7-10.8-20.2-18.8-28.4c-2-2.1-4.2-4-6.4-5.9c-2.1-1.8-4.3-3.4-6.6-5
		c-14.6-10-31.7-15.2-49.5-15.2c-12.3,0-23.9,2.5-34.5,7.1c-31.3,13.4-53.3,44.6-53.3,80.8c0,1,0,2.1,0.1,3.2
		c0.1,2.3,0.3,4.8,0.7,7.6l1.7,13.6l-13.7-0.2c-0.4,0-0.7,0-1,0c-30.2,0.1-54.7,24.7-54.7,55c0,30.3,24.7,55,55,55h296.8
		c19.6,0,35.5-15.9,35.5-35.5C484.6,296.8,469,281,449.7,280.7z"/>
</g>
</svg>
