<?xml version="1.0" encoding="utf-8"?>
<!-- Generator: Adobe Illustrator 25.0.1, SVG Export Plug-In . SVG Version: 6.00 Build 0)  -->
<svg version="1.1" id="圖層_1" xmlns="http://www.w3.org/2000/svg" xmlns:xlink="http://www.w3.org/1999/xlink" x="0px" y="0px"
	 viewBox="0 0 311.6 351.6" style="enable-background:new 0 0 311.6 351.6;" xml:space="preserve">
<style type="text/css">
	.st0{fill:#B9D7FF;}
	.st1{fill:#FFDC7B;}
</style>
<g>
	<path class="st0" d="M275.5,116.2c-0.2,0-0.3,0-0.5,0c2.9-6.6,4.5-13.9,4.5-21.6c0-30-24.4-54.4-54.4-54.4
		c-10.6,0-20.5,3.1-28.9,8.4c-11.3-27.5-38.4-46.9-70-46.9c-41.8,0-75.7,33.9-75.7,75.7c0,3.2,0.3,6.3,0.6,9.3c-0.2,0-0.4,0-0.6,0
		c-28,0-50.8,22.7-50.8,50.8s22.7,50.8,50.8,50.8h225c19.9,0,36-16.1,36-36C311.5,132.4,295.4,116.2,275.5,116.2z"/>
	<path class="st0" d="M67.3,276.9c-6.1,12.7-21.4,18.1-34.1,12c-12.7-6.1-18.1-21.4-12-34.1c6.1-12.7,45.7-36,45.7-36
		S73.4,264.2,67.3,276.9z"/>
	<path class="st0" d="M290,276.9c-6.1,12.7-21.4,18.1-34.1,12c-12.7-6.1-18.1-21.4-12-34.1c6.1-12.7,45.7-36,45.7-36
		S296.1,264.2,290,276.9z"/>
	<polygon class="st1" points="135.5,210 112.4,280.5 144.3,280.5 123.6,352.1 199,251 160.1,251 174.8,210 	"/>
</g>
</svg>
