<?xml version="1.0" encoding="utf-8"?>
<!-- Generator: Adobe Illustrator 25.0.1, SVG Export Plug-In . SVG Version: 6.00 Build 0)  -->
<svg version="1.1" id="圖層_1" xmlns="http://www.w3.org/2000/svg" xmlns:xlink="http://www.w3.org/1999/xlink" x="0px" y="0px"
	 viewBox="0 0 350.6 351.6" style="enable-background:new 0 0 350.6 351.6;" xml:space="preserve">
<style type="text/css">
	.st0{fill:#F8CA4D;}
</style>
<g>
	
		<ellipse transform="matrix(0.8941 -0.4479 0.4479 0.8941 -60.1884 97.1383)" class="st0" cx="175.3" cy="175.8" rx="71.1" ry="71.1"/>
	<g>
		<path class="st0" d="M175.3,77.7L175.3,77.7c-4.7,0-8.5-3.8-8.5-8.5V8.5c0-4.7,3.8-8.5,8.5-8.5l0,0c4.7,0,8.5,3.8,8.5,8.5v60.7
			C183.8,73.8,180,77.7,175.3,77.7z"/>
		<path class="st0" d="M175.3,351.7L175.3,351.7c-4.7,0-8.5-3.8-8.5-8.5v-60.7c0-4.7,3.8-8.5,8.5-8.5l0,0c4.7,0,8.5,3.8,8.5,8.5
			v60.7C183.8,347.9,180,351.7,175.3,351.7z"/>
	</g>
	<g>
		<path class="st0" d="M244.7,106.4L244.7,106.4c-3.3-3.3-3.3-8.7,0-12.1l42.9-42.9c3.3-3.3,8.7-3.3,12.1,0l0,0
			c3.3,3.3,3.3,8.7,0,12.1l-42.9,42.9C253.4,109.7,248,109.7,244.7,106.4z"/>
		<path class="st0" d="M50.9,300.2L50.9,300.2c-3.3-3.3-3.3-8.7,0-12.1l42.9-42.9c3.3-3.3,8.7-3.3,12.1,0l0,0
			c3.3,3.3,3.3,8.7,0,12.1L63,300.2C59.6,303.5,54.2,303.5,50.9,300.2z"/>
	</g>
	<g>
		<path class="st0" d="M273.4,175.8L273.4,175.8c0-4.7,3.8-8.5,8.5-8.5h60.7c4.7,0,8.5,3.8,8.5,8.5l0,0c0,4.7-3.8,8.5-8.5,8.5H282
			C277.3,184.3,273.4,180.5,273.4,175.8z"/>
		<path class="st0" d="M-0.6,175.8L-0.6,175.8c0-4.7,3.8-8.5,8.5-8.5h60.7c4.7,0,8.5,3.8,8.5,8.5l0,0c0,4.7-3.8,8.5-8.5,8.5H7.9
			C3.2,184.3-0.6,180.5-0.6,175.8z"/>
	</g>
	<g>
		<path class="st0" d="M244.7,245.2L244.7,245.2c3.3-3.3,8.7-3.3,12.1,0l42.9,42.9c3.3,3.3,3.3,8.7,0,12.1l0,0
			c-3.3,3.3-8.7,3.3-12.1,0l-42.9-42.9C241.4,254,241.4,248.6,244.7,245.2z"/>
		<path class="st0" d="M50.9,51.5L50.9,51.5c3.3-3.3,8.7-3.3,12.1,0l42.9,42.9c3.3,3.3,3.3,8.7,0,12.1l0,0c-3.3,3.3-8.7,3.3-12.1,0
			L50.9,63.5C47.6,60.2,47.6,54.8,50.9,51.5z"/>
	</g>
</g>
</svg>
