<?xml version="1.0" encoding="utf-8"?>
<!-- Generator: Adobe Illustrator 25.0.1, SVG Export Plug-In . SVG Version: 6.00 Build 0)  -->
<svg version="1.1" id="圖層_1" xmlns="http://www.w3.org/2000/svg" xmlns:xlink="http://www.w3.org/1999/xlink" x="0px" y="0px"
	 viewBox="0 0 378.6 351.6" style="enable-background:new 0 0 378.6 351.6;" xml:space="preserve">
<style type="text/css">
	.st0{fill:#FFFFFF;}
	.st1{fill:#B9D7FF;}
</style>
<g>
	<path class="st0" d="M334.9,139.2c-0.2,0-0.4,0.1-0.6,0.1c3.5-8,5.4-16.9,5.4-26.2c0-36.5-29.6-66.1-66.1-66.1
		c-12.9,0-24.9,3.8-35.1,10.1c-13.8-33.5-46.6-57-85.1-57c-50.8,0-92,41.2-92,92c0,3.8,0.3,7.6,0.8,11.3c-0.3,0-0.5,0-0.8,0
		c-34.1,0-61.7,27.6-61.7,61.7s27.6,61.7,61.7,61.7h273.4c24.2,0,43.7-19.6,43.7-43.7C378.7,158.8,359.1,139.2,334.9,139.2z"/>
	<path class="st1" d="M121.1,334.4c-7.4,15.5-26,22-41.4,14.5c-15.5-7.4-22-26-14.5-41.4c7.4-15.5,55.5-43.7,55.5-43.7
		S128.5,319,121.1,334.4z"/>
	<path class="st1" d="M198.3,334.4c-7.4,15.5-26,22-41.4,14.5c-15.5-7.4-22-26-14.5-41.4c7.4-15.5,55.5-43.7,55.5-43.7
		S205.7,319,198.3,334.4z"/>
	<path class="st1" d="M276.6,334.4c-7.4,15.5-26,22-41.4,14.5c-15.5-7.4-22-26-14.5-41.4c7.4-15.5,55.5-43.7,55.5-43.7
		S284.1,319,276.6,334.4z"/>
</g>
</svg>
