<?xml version="1.0" encoding="utf-8"?>
<!-- Generator: Adobe Illustrator 25.0.1, SVG Export Plug-In . SVG Version: 6.00 Build 0)  -->
<svg version="1.1" id="圖層_1" xmlns="http://www.w3.org/2000/svg" xmlns:xlink="http://www.w3.org/1999/xlink" x="0px" y="0px"
	 viewBox="0 0 386.6 207.6" style="enable-background:new 0 0 386.6 207.6;" xml:space="preserve">
<style type="text/css">
	.st0{fill:#FFFFFF;}
</style>
<g>
	<path class="st0" d="M307.3,127.4c-0.2,0-0.3,0-0.5,0.1c3.2-7.4,5-15.5,5-24c0-33.5-27.2-60.7-60.7-60.7c-11.8,0-22.9,3.4-32.2,9.3
		c-12.6-30.7-42.8-52.3-78.1-52.3c-46.6,0-84.4,37.8-84.4,84.4c0,3.5,0.3,7,0.7,10.4c-0.2,0-0.5,0-0.7,0
		c-31.3,0-56.6,25.3-56.6,56.6s25.3,56.6,56.6,56.6h250.8c22.2,0,40.1-18,40.1-40.1C347.4,145.4,329.5,127.4,307.3,127.4z"/>
	<path class="st0" d="M276.1,13.7H147.8c-3.8,0-7-3.1-7-7l0,0c0-3.8,3.1-7,7-7h128.3c3.8,0,7,3.1,7,7l0,0
		C283.1,10.5,280,13.7,276.1,13.7z"/>
	<path class="st0" d="M379.9,13.7h-74.4c-3.8,0-7-3.1-7-7l0,0c0-3.8,3.1-7,7-7h74.4c3.8,0,7,3.1,7,7l0,0
		C386.9,10.5,383.8,13.7,379.9,13.7z"/>
	<path class="st0" d="M328.8,56.7H252c-3.8,0-7-3.1-7-7l0,0c0-3.8,3.1-7,7-7h76.7c3.8,0,7,3.1,7,7l0,0
		C335.7,53.6,332.6,56.7,328.8,56.7z"/>
	<path class="st0" d="M379.5,56.7h-20.4c-3.8,0-7-3.1-7-7l0,0c0-3.8,3.1-7,7-7h20.4c3.8,0,7,3.1,7,7l0,0
		C386.5,53.6,383.4,56.7,379.5,56.7z"/>
	<path class="st0" d="M379.5,140.8H252c-3.8,0-7-3.1-7-7l0,0c0-3.8,3.1-7,7-7h127.5c3.8,0,7,3.1,7,7l0,0
		C386.5,137.7,383.4,140.8,379.5,140.8z"/>
	<path class="st0" d="M379.5,207.7H252c-3.8,0-7-3.1-7-7l0,0c0-3.8,3.1-7,7-7h127.5c3.8,0,7,3.1,7,7l0,0
		C386.5,204.5,383.4,207.7,379.5,207.7z"/>
</g>
</svg>
