<?xml version="1.0" encoding="utf-8"?>
<!-- Generator: Adobe Illustrator 25.0.1, SVG Export Plug-In . SVG Version: 6.00 Build 0)  -->
<svg version="1.1" id="圖層_1" xmlns="http://www.w3.org/2000/svg" xmlns:xlink="http://www.w3.org/1999/xlink" x="0px" y="0px"
	 viewBox="0 0 306.6 254.6" style="enable-background:new 0 0 306.6 254.6;" xml:space="preserve">
<style type="text/css">
	.st0{fill:#B9D7FF;}
	.st1{fill:#FFFFFF;}
</style>
<g>
	<g>
		<path class="st0" d="M94.3,242.3c-5.4,11.2-18.9,16-30.1,10.6c-11.2-5.4-16-18.9-10.6-30.1C59,211.5,93.9,191,93.9,191
			S99.7,231,94.3,242.3z"/>
		<path class="st0" d="M150.4,242.3c-5.4,11.2-18.9,16-30.1,10.6c-11.2-5.4-16-18.9-10.6-30.1C115.1,211.5,150,191,150,191
			S155.8,231,150.4,242.3z"/>
		<path class="st0" d="M207.2,242.3c-5.4,11.2-18.9,16-30.1,10.6c-11.2-5.4-16-18.9-10.6-30.1c5.4-11.2,40.3-31.8,40.3-31.8
			S212.6,231,207.2,242.3z"/>
	</g>
	<g>
		<path class="st1" d="M242.6,100.1c-0.2,0-0.2,0-0.4,0.1c2.5-5.8,3.9-12.1,3.9-18.8c0-26.3-21.3-47.6-47.6-47.6
			c-9.2,0-17.9,2.7-25.2,7.3c-9.9-24.1-33.5-41-61.2-41c-36.5,0-66.2,29.6-66.2,66.2c0,2.7,0.2,5.5,0.5,8.2c-0.2,0-0.4,0-0.5,0
			c-24.5,0-44.4,19.8-44.4,44.4s19.8,44.4,44.4,44.4h196.6c17.4,0,31.4-14.1,31.4-31.4C274,114.3,260,100.1,242.6,100.1z"/>
		<path class="st1" d="M218.1,11H117.6c-3,0-5.5-2.4-5.5-5.5l0,0c0-3,2.4-5.5,5.5-5.5h100.6c3,0,5.5,2.4,5.5,5.5l0,0
			C223.6,8.5,221.2,11,218.1,11z"/>
		<path class="st1" d="M299.5,11h-58.3c-3,0-5.5-2.4-5.5-5.5l0,0c0-3,2.4-5.5,5.5-5.5h58.3c3,0,5.5,2.4,5.5,5.5l0,0
			C305,8.5,302.6,11,299.5,11z"/>
		<path class="st1" d="M259.4,44.7h-60.2c-3,0-5.5-2.4-5.5-5.5l0,0c0-3,2.4-5.5,5.5-5.5h60.1c3,0,5.5,2.4,5.5,5.5l0,0
			C264.9,42.3,262.4,44.7,259.4,44.7z"/>
		<path class="st1" d="M299.2,44.7h-16c-3,0-5.5-2.4-5.5-5.5l0,0c0-3,2.4-5.5,5.5-5.5h16c3,0,5.5,2.4,5.5,5.5l0,0
			C304.7,42.3,302.2,44.7,299.2,44.7z"/>
		<path class="st1" d="M299.2,110.6h-99.9c-3,0-5.5-2.4-5.5-5.5l0,0c0-3,2.4-5.5,5.5-5.5h99.9c3,0,5.5,2.4,5.5,5.5l0,0
			C304.7,108.2,302.2,110.6,299.2,110.6z"/>
		<path class="st1" d="M299.2,163.1h-99.9c-3,0-5.5-2.4-5.5-5.5l0,0c0-3,2.4-5.5,5.5-5.5h99.9c3,0,5.5,2.4,5.5,5.5l0,0
			C304.7,160.6,302.2,163.1,299.2,163.1z"/>
	</g>
</g>
</svg>
