<?xml version="1.0" encoding="utf-8"?>
<!-- Generator: Adobe Illustrator 25.0.1, SVG Export Plug-In . SVG Version: 6.00 Build 0)  -->
<svg version="1.1" id="圖層_1" xmlns="http://www.w3.org/2000/svg" xmlns:xlink="http://www.w3.org/1999/xlink" x="0px" y="0px"
	 viewBox="0 0 358.6 351.6" style="enable-background:new 0 0 358.6 351.6;" xml:space="preserve">
<style type="text/css">
	.st0{fill:#F8CA4D;}
	.st1{fill:#FFFFFF;}
	.st2{fill:#B9D7FF;}
</style>
<g>
	<path class="st0" d="M141.9,102.1c0.2-0.1,0.4-0.3,0.6-0.4c4.6-3.4,9.5-6.2,14.8-8.5c-8.1-14.2-23.4-23.7-40.9-23.7
		c-26.1,0-47.2,21.1-47.2,47.2c0,24.8,19.1,45.1,43.4,47c0-0.8-0.1-1.7-0.1-2.5C112.5,137.1,124.1,115.7,141.9,102.1z"/>
	<path class="st0" d="M116.3,51.6c3.1,0,5.7-2.5,5.7-5.7V5.7c0-3.1-2.5-5.7-5.7-5.7c-3.1,0-5.7,2.5-5.7,5.7v40.2
		C110.7,49,113.2,51.6,116.3,51.6z"/>
	<path class="st0" d="M170.4,70.6l28.5-28.5c2.2-2.2,2.2-5.8,0-8c-2.2-2.2-5.8-2.2-8,0l-28.5,28.5c-2.2,2.2-2.2,5.8,0,8
		C164.6,72.8,168.2,72.8,170.4,70.6z"/>
	<path class="st0" d="M70.3,162.7c-2.2-2.2-5.8-2.2-8,0l-28.5,28.5c-2.2,2.2-2.2,5.8,0,8c2.2,2.2,5.8,2.2,8,0l28.5-28.5
		C72.5,168.5,72.5,164.9,70.3,162.7z"/>
	<path class="st0" d="M51.2,116.7c0-3.1-2.5-5.7-5.7-5.7H5.3c-3.1,0-5.7,2.5-5.7,5.7c0,3.1,2.5,5.7,5.7,5.7h40.2
		C48.7,122.3,51.2,119.8,51.2,116.7z"/>
	<path class="st0" d="M62.3,70.6c2.2,2.2,5.8,2.2,8,0c2.2-2.2,2.2-5.8,0-8L41.8,34.2c-2.2-2.2-5.8-2.2-8,0c-2.2,2.2-2.2,5.8,0,8
		L62.3,70.6z"/>
	<path class="st1" d="M333,208.1c-0.2,0-0.5,0-0.8,0l-13.7,0.2l5.4-12.6c2.4-5.6,3.6-11.5,3.6-17.6c0-24.4-19.9-44.3-44.3-44.3
		c-8.3,0-16.4,2.4-23.5,6.8l-8.9,5.6l-4-9.8c-3.3-7.9-8-15-13.9-21c-1.5-1.5-3.1-3-4.8-4.4c-1.6-1.3-3.2-2.5-4.9-3.7
		c-10.8-7.4-23.5-11.3-36.7-11.3c-9.1,0-17.7,1.9-25.6,5.2c-23.2,10-39.5,33.1-39.5,59.9c0,0.8,0,1.6,0.1,2.4
		c0.1,1.7,0.2,3.6,0.5,5.6l1.2,10.1l-10.2-0.1c-0.3,0-0.5,0-0.7,0c-22.4,0.1-40.5,18.3-40.5,40.7c0,22.5,18.3,40.7,40.8,40.7h220.1
		c14.5,0,26.3-11.8,26.3-26.3C358.9,220,347.3,208.3,333,208.1z"/>
</g>
<g>
	<path class="st2" d="M163.9,339.3c-5.4,11.2-18.9,16-30.1,10.6c-11.2-5.4-16-18.9-10.6-30.1c5.4-11.2,40.3-31.8,40.3-31.8
		S169.3,328,163.9,339.3z"/>
	<path class="st2" d="M220,339.3c-5.4,11.2-18.9,16-30.1,10.6c-11.2-5.4-16-18.9-10.6-30.1c5.4-11.2,40.3-31.8,40.3-31.8
		S225.4,328,220,339.3z"/>
	<path class="st2" d="M276.9,339.3c-5.4,11.2-18.9,16-30.1,10.6c-11.2-5.4-16-18.9-10.6-30.1c5.4-11.2,40.3-31.8,40.3-31.8
		S282.3,328,276.9,339.3z"/>
</g>
</svg>
