<?xml version="1.0" encoding="utf-8"?>
<!-- Generator: Adobe Illustrator 25.0.1, SVG Export Plug-In . SVG Version: 6.00 Build 0)  -->
<svg version="1.1" id="圖層_1" xmlns="http://www.w3.org/2000/svg" xmlns:xlink="http://www.w3.org/1999/xlink" x="0px" y="0px"
	 viewBox="0 0 484.6 351.6" style="enable-background:new 0 0 484.6 351.6;" xml:space="preserve">
<style type="text/css">
	.st0{fill:#B9D7FF;}
	.st1{fill:#FFFFFF;}
</style>
<g>
	<path class="st0" d="M446.8,174c-0.2,0-0.3,0-0.5,0c3-7,4.7-14.7,4.7-22.8c0-31.8-25.8-57.5-57.5-57.5c-11.2,0-21.7,3.3-30.5,8.8
		c-12-29.1-40.6-49.6-74-49.6c-26.8,0-50.4,13.1-64.9,33.3c0.3,0.2,0.5,0.4,0.8,0.5c12.8,9.3,23.4,21.2,31,34.9
		c9.9-4.2,20.6-6.3,31.4-6.3c44.9,0,81.4,36.5,81.4,81.4c0,5.9-0.6,11.8-1.9,17.5c5.6,1.5,11,3.9,16,7.1c9.1,5.8,16.3,14,21,23.7
		c0.8,1.7,1.5,3.4,2.2,5.2h41c21,0,38.1-17,38.1-38.1C484.9,191,467.9,174,446.8,174z"/>
	<path class="st1" d="M380.1,234c-0.8-0.7-1.7-1.3-2.5-1.9c-0.9-0.6-1.8-1.2-2.7-1.7c-0.9-0.5-1.8-1.1-2.8-1.5s-1.9-0.9-2.9-1.3
		c-5.4-2.3-11.4-3.5-17.7-3.5c-0.2,0-0.4,0.1-0.6,0.1l0,0l0,0c1.4-3.2,2.5-6.4,3.4-9.8c1.2-4.5,1.9-9.2,2.2-14
		c0.1-1.2,0.1-2.4,0.1-3.6c0-8.4-1.5-16.4-4.2-23.9c-1.6-4.2-3.5-8.3-5.8-12.1c-2.9-4.8-6.4-9.2-10.3-13.1c-1.6-1.6-3.2-3.1-4.9-4.5
		c-12-9.9-27.4-15.8-44.1-15.8c-2.5,0-5,0.1-7.5,0.4c-1.6,0.2-3.3,0.4-4.9,0.7c-0.8,0.1-1.6,0.3-2.4,0.5c-2.4,0.5-4.7,1.2-7,1.9
		c-0.8,0.3-1.5,0.5-2.3,0.8c-3,1.1-5.9,2.4-8.7,3.9c-1.4,0.7-2.8,1.5-4.1,2.4c-1.3-3.1-2.7-6.2-4.3-9.1c-1.1-2-2.2-3.9-3.4-5.8
		c-0.6-0.9-1.2-1.9-1.8-2.8c-1.3-1.8-2.6-3.6-3.9-5.4c-0.7-0.9-1.4-1.7-2.1-2.6c-2.2-2.5-4.4-5-6.8-7.3c-1.6-1.5-3.3-3-5-4.4
		s-3.5-2.8-5.3-4.1c-16-11.6-35.5-18.5-56.7-18.5c-53.3,0-96.5,43.2-96.5,96.5c0,4,0.3,8,0.8,11.9c-0.3,0-0.5,0-0.8,0
		c-35.7,0-64.7,29-64.7,64.7s29,64.7,64.7,64.7h286.8c25.3,0,45.9-20.5,45.9-45.9c0-7.1-1.6-13.8-4.5-19.8
		C389.8,243.8,385.5,238.3,380.1,234z"/>
	<path class="st1" d="M265.4,130.8c2.3-0.8,4.6-1.4,7-1.9C270,129.3,267.7,130,265.4,130.8z"/>
	<path class="st1" d="M331.3,143.1c1.7,1.4,3.4,2.9,4.9,4.5C334.7,146,333,144.5,331.3,143.1z"/>
	<path class="st1" d="M254.5,135.5c2.8-1.5,5.7-2.8,8.7-3.9C260.2,132.7,257.3,134,254.5,135.5z"/>
	<path class="st1" d="M356.6,196.6c0-8.4-1.5-16.4-4.2-23.9C355.1,180.2,356.6,188.2,356.6,196.6L356.6,196.6z"/>
	<path class="st1" d="M346.5,160.6c2.3,3.8,4.3,7.9,5.8,12.1C350.8,168.5,348.8,164.4,346.5,160.6z"/>
	<path class="st1" d="M250.4,137.9c1.3-0.8,2.7-1.6,4.1-2.4C253.1,136.2,251.7,137,250.4,137.9z"/>
	<path class="st1" d="M217.7,96.4c1.8,1.3,3.5,2.7,5.3,4.1C221.3,99.1,219.5,97.7,217.7,96.4z"/>
	<path class="st1" d="M236.9,114.8c1.4,1.7,2.7,3.5,3.9,5.4C239.6,118.3,238.3,116.5,236.9,114.8z"/>
	<path class="st1" d="M242.7,123c1.2,1.9,2.3,3.8,3.4,5.8C245,126.8,243.9,124.9,242.7,123z"/>
	<path class="st1" d="M274.8,128.3c1.6-0.3,3.2-0.5,4.9-0.7C278,127.8,276.4,128,274.8,128.3z"/>
	<path class="st1" d="M234.8,112.2c-2.2-2.5-4.4-5-6.8-7.3C230.3,107.3,232.6,109.7,234.8,112.2z"/>
	<path class="st1" d="M350.9,224.1c1.4-3.2,2.5-6.4,3.4-9.8C353.4,217.6,352.2,220.9,350.9,224.1L350.9,224.1z"/>
</g>
</svg>
