<?xml version="1.0" encoding="utf-8"?>
<!-- Generator: Adobe Illustrator 25.0.1, SVG Export Plug-In . SVG Version: 6.00 Build 0)  -->
<svg version="1.1" id="圖層_1" xmlns="http://www.w3.org/2000/svg" xmlns:xlink="http://www.w3.org/1999/xlink" x="0px" y="0px"
	 viewBox="0 0 424.6 351.6" style="enable-background:new 0 0 424.6 351.6;" xml:space="preserve">
<style type="text/css">
	.st0{fill:#82B7FF;}
</style>
<path class="st0" d="M212.3,0.2c0,0-144.6,27.6-213.1,148.5c1.9-1.7,48.5-41.5,111.6,0.1c0,0,43.4-34,87.6-9.7v174.3
	c0,6-4.9,10.9-10.9,10.9s-10.9-4.9-10.9-10.9v-6.9c0-7.7-6.2-13.9-13.9-13.9c-7.7,0-13.9,6.2-13.9,13.9v6.9
	c0,21.3,17.3,38.7,38.7,38.7c21.3,0,38.7-17.3,38.7-38.7V139.1c44.3-24.3,87.6,9.7,87.6,9.7c63.1-41.6,109.6-1.7,111.6-0.1
	C356.8,27.8,212.3,0.2,212.3,0.2z"/>
</svg>
