<?xml version="1.0" encoding="utf-8"?>
<!-- Generator: Adobe Illustrator 25.0.1, SVG Export Plug-In . SVG Version: 6.00 Build 0)  -->
<svg version="1.1" id="圖層_1" xmlns="http://www.w3.org/2000/svg" xmlns:xlink="http://www.w3.org/1999/xlink" x="0px" y="0px"
	 viewBox="0 0 350.6 351.6" style="enable-background:new 0 0 350.6 351.6;" xml:space="preserve">
<style type="text/css">
	.st0{fill:#FFFFFF;}
</style>
<g>
	<path class="st0" d="M185.3,340.4h-20c-2.5,0-4.6-2.1-4.6-4.6V15.8c0-2.5,2.1-4.6,4.6-4.6h20c2.5,0,4.6,2.1,4.6,4.6v320.1
		C189.8,338.4,187.8,340.4,185.3,340.4z"/>
	<g>
		<path class="st0" d="M232.5,35.1c3.8,3.8,3.8,10.1,0,13.9l-57,57l-0.2-0.3l-0.3,0.3l-57-57c-3.8-3.8-3.8-10.1,0-13.9l6.7-6.7
			c3.8-3.8,10.1-3.8,13.9,0l29.7,29.7c3.8,3.8,10.1,3.8,13.9,0L212,28.5c3.8-3.8,10.1-3.8,13.9,0L232.5,35.1z"/>
		<path class="st0" d="M118,316.5c-3.8-3.8-3.8-10.1,0-13.9l57-57l0.2,0.3l0.3-0.3l57,57c3.8,3.8,3.8,10.1,0,13.9l-6.7,6.7
			c-3.8,3.8-10.1,3.8-13.9,0l-29.7-29.7c-3.8-3.8-10.1-3.8-13.9,0l-29.7,29.7c-3.8,3.8-10.1,3.8-13.9,0L118,316.5z"/>
	</g>
	<path class="st0" d="M10.7,185.8v-20c0-2.5,2.1-4.6,4.6-4.6h320.1c2.5,0,4.6,2.1,4.6,4.6v20c0,2.5-2.1,4.6-4.6,4.6H15.2
		C12.7,190.4,10.7,188.3,10.7,185.8z"/>
	<g>
		<path class="st0" d="M316,233.1c-3.8,3.8-10.1,3.8-13.9,0l-57-57l0.3-0.2l-0.3-0.3l57-57c3.8-3.8,10.1-3.8,13.9,0l6.7,6.7
			c3.8,3.8,3.8,10.1,0,13.9l-29.7,29.7c-3.8,3.8-3.8,10.1,0,13.9l29.7,29.7c3.8,3.8,3.8,10.1,0,13.9L316,233.1z"/>
		<path class="st0" d="M34.6,118.6c3.8-3.8,10.1-3.8,13.9,0l57,57l-0.3,0.2l0.3,0.3l-57,57c-3.8,3.8-10.1,3.8-13.9,0l-6.7-6.7
			c-3.8-3.8-3.8-10.1,0-13.9l29.7-29.7c3.8-3.8,3.8-10.1,0-13.9l-29.7-29.7c-3.8-3.8-3.8-10.1,0-13.9L34.6,118.6z"/>
	</g>
	<path class="st0" d="M96.7,254.5L96.7,254.5c-3.9-3.9-3.9-10.1,0-13.9L240,97.2c3.8-3.8,10.1-3.8,13.9,0l0,0
		c3.8,3.8,3.8,10.1,0,13.9L110.6,254.5C106.7,258.3,100.5,258.3,96.7,254.5z"/>
	<g>
		<path class="st0" d="M269.8,132.8c0,5.4-4.4,9.8-9.8,9.8l-51.3,0l0-0.2h-0.2V91.1c0-5.4,4.4-9.8,9.8-9.8h0c5.4,0,9.8,4.4,9.8,9.8
			v22c0,5.4,4.4,9.8,9.8,9.8l22,0C265.4,123,269.8,127.4,269.8,132.8L269.8,132.8z"/>
		<path class="st0" d="M80.7,218.9c0-5.4,4.4-9.8,9.8-9.8l51.3,0l0,0.2h0.2v51.3c0,5.4-4.4,9.8-9.8,9.8h0c-5.4,0-9.8-4.4-9.8-9.8
			v-22c0-5.4-4.4-9.8-9.8-9.8l-22,0C85.1,228.7,80.7,224.3,80.7,218.9L80.7,218.9z"/>
	</g>
	<path class="st0" d="M96.6,97.2L96.6,97.2c3.9-3.9,10.1-3.9,13.9,0l143.4,143.4c3.8,3.8,3.8,10.1,0,13.9l0,0
		c-3.8,3.8-10.1,3.8-13.9,0L96.6,111.1C92.8,107.3,92.8,101,96.6,97.2z"/>
	<g>
		<path class="st0" d="M218.3,270.4c-5.4,0-9.8-4.4-9.8-9.8l0-51.3l0.2,0V209H260c5.4,0,9.8,4.4,9.8,9.8v0c0,5.4-4.4,9.8-9.8,9.8
			h-22c-5.4,0-9.8,4.4-9.8,9.8l0,22C228.1,266,223.7,270.4,218.3,270.4L218.3,270.4z"/>
		<path class="st0" d="M132.2,81.3c5.4,0,9.8,4.4,9.8,9.8l0,51.3l-0.2,0v0.2H90.6c-5.4,0-9.8-4.4-9.8-9.8l0,0c0-5.4,4.4-9.8,9.8-9.8
			h22c5.4,0,9.8-4.4,9.8-9.8l0-22C122.4,85.7,126.8,81.3,132.2,81.3L132.2,81.3z"/>
	</g>
</g>
</svg>
